<svg xmlns="http://www.w3.org/2000/svg" version="1.1" xmlns:xlink="http://www.w3.org/1999/xlink" xmlns:svgjs="http://svgjs.com/svgjs" width="15" height="15"><svg xmlns="http://www.w3.org/2000/svg" width="15" height="15" fill="none"><path fill="#fff" d="M7.171.785C6.88.372 6.391.14 5.96.4c-.386.231-.696.439-.887.623-.178.171-.256.313-.266.442-.01.13.04.275.224.477a.118.118 0 0 0 .105.037 13.61 13.61 0 0 1 2.305-.137c1.05.021 2.048.142 2.915.337.106.024.19-.093.12-.177-.221-.263-.452-.43-1.15-.396l-.019.001h-.019c-1.214-.074-1.82-.404-2.116-.822Zm.136 1.566c-1.253-.005-2.342.15-3.09.396-.398.132-.697.292-.873.453-.175.16-.223.306-.191.443.069.295.463.32.756.241.849-.227 1.83-.402 2.898-.504 1.838-.175 3.587-.102 4.96.167.105.02.208.042.308.065.195.045.306-.122.14-.234-.254-.17-.631-.342-1.095-.492-.93-.298-2.201-.505-3.56-.532l-.253-.003Zm1.624 1.43a20.02 20.02 0 0 0-1.944.092c-1.775.169-3.298.55-4.303 1.016-.503.232-.875.487-1.086.73-.034.04-.064.078-.09.115-.14.206.089.378.33.315C3.308 5.666 5.3 5.437 7.5 5.437c2.2 0 4.19.23 5.663.612.089.024.185.008.258-.048.112-.086.205-.172.279-.257.211-.244.261-.46.19-.658-.073-.197-.273-.39-.642-.578-.37-.188-.896-.356-1.529-.48-.791-.156-1.749-.244-2.788-.246ZM7.5 5.894c-2.13 0-4.056.227-5.42.582-.683.177-1.223.388-1.574.604-.352.216-.506.423-.506.624 0 .202.154.41.506.625a.018.018 0 0 0 .016.001l1.373-.58a2 2 0 0 1 1.565.004l.823.352a2 2 0 0 0 1.557.007l.877-.366a2 2 0 0 1 1.567.011l.792.344a2 2 0 0 0 1.558.015l.919-.379a2 2 0 0 1 1.54.007l1.385.585a.018.018 0 0 0 .016 0c.352-.217.506-.424.506-.626 0-.201-.154-.408-.506-.624-.351-.216-.891-.427-1.573-.604-1.365-.355-3.292-.582-5.421-.582Zm5.418 2.347a1.554 1.554 0 0 0-1.197-.005l-.476.196a2 2 0 0 0-1.217 1.557l-.378 2.558a.3.3 0 0 1-.595-.088l.314-2.119a1.916 1.916 0 0 0-1.135-2.03 1.877 1.877 0 0 0-2.608 1.995l.319 2.154a.3.3 0 0 1-.595.088l-.375-2.537a2 2 0 0 0-1.191-1.546l-.504-.216a1.543 1.543 0 0 0-2.025 2.029l1.113 2.588a2 2 0 0 0 1.837 1.21h6.59a2 2 0 0 0 1.837-1.21l1.109-2.578a1.554 1.554 0 0 0-.823-2.046Z"></path></svg><style>@media (prefers-color-scheme: light) { :root { filter: none; } }
</style></svg>