<svg width="21" height="19" viewBox="0 0 21 19" fill="none" xmlns="http://www.w3.org/2000/svg">
<path d="M17.9813 3.32163C17.8809 1.96605 16.7452 0.893585 15.3626 0.893585C14.089 0.893585 13.0246 1.80355 12.7861 3.00651L0.5 7.17886V18.2784H20.5V7.64612C20.5 5.7873 19.6311 4.29956 17.9813 3.32163ZM12.8739 4.35417C13.2247 5.39108 14.2073 6.13995 15.3626 6.13995C16.3845 6.13995 17.2714 5.55374 17.7054 4.70069C18.5138 5.29245 18.9959 6.06003 19.1452 6.99397H5.10074L12.8739 4.35417ZM19.1956 13.8327C18.9069 13.7967 18.6969 13.7373 18.4679 13.6723C18.0619 13.5571 17.6017 13.4266 16.732 13.4266C15.8623 13.4266 15.4021 13.5571 14.9961 13.6723C14.625 13.7776 14.3045 13.8685 13.6163 13.8685C12.928 13.8685 12.6075 13.7776 12.2363 13.6723C11.8303 13.5571 11.3701 13.4266 10.5004 13.4266C9.63066 13.4266 9.17047 13.5571 8.76441 13.6723C8.39324 13.7776 8.07266 13.8685 7.38441 13.8685C6.69605 13.8685 6.37551 13.7775 6.00434 13.6723C5.59828 13.5571 5.13805 13.4265 4.26828 13.4265C3.39855 13.4265 2.93832 13.5571 2.53223 13.6723C2.30313 13.7373 2.09309 13.7967 1.80422 13.8327V11.8174C2.27934 11.7726 2.59813 11.6827 2.88824 11.6004C3.25941 11.4951 3.58 11.4042 4.26828 11.4042C4.95656 11.4042 5.27715 11.4951 5.64832 11.6004C6.05438 11.7156 6.51461 11.8462 7.38438 11.8462C8.25406 11.8462 8.7143 11.7156 9.12035 11.6004C9.49152 11.4951 9.81203 11.4042 10.5003 11.4042C11.1886 11.4042 11.5091 11.4951 11.8803 11.6004C12.2863 11.7156 12.7465 11.8462 13.6162 11.8462C14.4859 11.8462 14.9461 11.7156 15.3521 11.6004C15.7232 11.4951 16.0437 11.4042 16.732 11.4042C17.4202 11.4042 17.7407 11.4951 18.1119 11.6004C18.402 11.6827 18.7206 11.7726 19.1955 11.8174L19.1956 13.8327Z" fill="#F498C2"/>
<ellipse cx="14.7795" cy="3.38823" rx="2.66667" ry="2.66667" fill="#57263C"/>
</svg>
