<svg width="562" height="606" viewBox="0 0 562 606" fill="none" xmlns="http://www.w3.org/2000/svg">
<path d="M551.442 223.844C581.895 333.027 545.82 442.21 451.651 516.473C357.483 590.735 205.22 629.634 109.177 569.517C13.1343 509.842 -26.6883 351.151 18.7563 222.518C64.6694 93.8845 195.381 -4.69002 309.227 0.172396C423.541 5.47685 520.521 114.66 551.442 223.844Z" fill="#B0EFEF"/>
<g clip-path="url(#clip0_121_84)">
<path d="M488.408 576.533C485.546 577.54 482.474 577.792 479.488 577.265C476.501 576.739 473.7 575.451 471.354 573.525C465.382 568.505 463.507 560.236 461.985 552.578L457.479 529.928L466.914 536.434C473.699 541.112 480.637 545.94 485.336 552.717C490.035 559.493 492.085 568.744 488.31 576.076" fill="#F498C2"/>
<path d="M487.364 603.945C488.414 596.18 489.494 588.316 488.758 580.468C488.103 573.498 486.008 566.69 481.743 561.108C479.479 558.15 476.724 555.616 473.601 553.62C472.787 553.1 472.039 554.408 472.849 554.927C478.25 558.392 482.428 563.509 484.781 569.539C487.378 576.245 487.795 583.556 487.344 590.68C487.073 594.988 486.5 599.266 485.921 603.542C485.875 603.736 485.903 603.94 486 604.113C486.097 604.286 486.255 604.415 486.443 604.474C486.633 604.526 486.837 604.5 487.009 604.401C487.181 604.302 487.307 604.138 487.36 603.945L487.364 603.945Z" fill="#F498C2"/>
<path d="M453.403 488.263H58.6543V93H453.403V488.263Z" fill="white"/>
<path d="M453.403 488.263H58.6543V93H453.403V488.263ZM64.4866 482.423H447.571V98.84H64.4866V482.423Z" fill="#F498C2"/>
<path d="M383.472 154.839H212.529V160.171H383.472V154.839Z" fill="#F498C2"/>
<path d="M383.472 168.702H212.529V174.034H383.472V168.702Z" fill="#F498C2"/>
<path d="M383.472 182.565H212.529V187.897H383.472V182.565Z" fill="#F498C2"/>
<path d="M383.472 273.877H212.529V279.209H383.472V273.877Z" fill="#F498C2"/>
<path d="M383.472 287.74H212.529V293.072H383.472V287.74Z" fill="#F498C2"/>
<path d="M383.472 301.603H212.529V306.935H383.472V301.603Z" fill="#F498C2"/>
<path d="M383.472 392.915H212.529V398.247H383.472V392.915Z" fill="#F498C2"/>
<path d="M383.472 406.778H212.529V412.11H383.472V406.778Z" fill="#F498C2"/>
<path d="M383.472 420.641H212.529V425.973H383.472V420.641Z" fill="#F498C2"/>
<path d="M144.097 197.321C141.177 195.78 138.128 194.495 134.986 193.482L134.586 189.044L118.338 187.292L116.273 192.964L110.442 195.155C110.233 195.234 110.035 195.337 109.85 195.463H109.844C109.518 195.683 109.241 195.968 109.029 196.299C108.817 196.63 108.675 197.001 108.611 197.389C108.549 197.775 108.564 198.169 108.654 198.549L108.963 199.814C109.406 200.08 109.863 200.333 110.318 200.573L110.608 200.722C111.274 201.067 111.952 201.394 112.649 201.697C112.79 201.758 112.944 201.82 113.086 201.882C113.099 201.888 113.105 201.888 113.117 201.894C113.444 202.03 113.77 202.16 114.103 202.283C115.197 202.701 116.312 203.06 117.444 203.357C120.333 204.128 123.311 204.518 126.302 204.517C127.393 204.517 128.471 204.468 129.538 204.363C131.974 204.138 134.38 203.652 136.712 202.913C136.718 202.913 136.725 202.906 136.731 202.906C138.205 202.436 139.644 201.865 141.04 201.197C141.046 201.191 141.058 201.191 141.064 201.185C141.378 201.036 141.681 200.876 141.989 200.722L142.137 200.647C142.383 200.518 142.63 200.388 142.876 200.253C143.493 199.913 144.097 199.555 144.695 199.172C144.861 199.074 145.021 198.969 145.188 198.858C145.422 198.703 145.656 198.543 145.884 198.376C145.311 198.006 144.713 197.654 144.097 197.321Z" fill="#724F5E"/>
<path d="M113.604 200.055L112.587 195.457H109.931C109.904 195.457 109.877 195.459 109.851 195.463H109.844C108.889 195.544 107.97 195.862 107.169 196.389C106.626 196.736 106.143 197.17 105.739 197.673C106.528 198.271 107.348 198.827 108.192 199.358L108.229 199.376C108.47 199.524 108.716 199.672 108.963 199.814C109.407 200.08 109.863 200.333 110.319 200.574L110.609 200.722C111.274 201.067 111.953 201.394 112.649 201.697C112.791 201.759 112.945 201.82 113.087 201.882C113.099 201.888 113.105 201.888 113.117 201.894C113.444 202.03 113.771 202.16 114.104 202.283L113.604 200.055Z" fill="#724F5E"/>
<path d="M125.824 184.486C132.287 184.486 137.526 179.24 137.526 172.769C137.526 166.298 132.287 161.052 125.824 161.052C119.362 161.052 114.123 166.298 114.123 172.769C114.123 179.24 119.362 184.486 125.824 184.486Z" fill="#FFB8B8"/>
<path d="M117.968 167.061C119.179 168.497 121.229 168.902 123.12 169.068C127.542 169.313 131.976 168.95 136.299 167.991C136.567 170.59 135.836 173.393 137.365 175.532C138.082 172.943 138.499 170.28 138.608 167.595C138.722 166.444 138.572 165.281 138.169 164.196C137.953 163.653 137.59 163.18 137.119 162.833C136.649 162.486 136.091 162.278 135.509 162.233C136.381 161.571 137.402 161.133 138.482 160.96L134.767 159.09L135.721 158.109L128.994 157.697L130.942 156.458C128.01 156.054 125.043 155.961 122.091 156.178C120.712 156.179 119.358 156.555 118.177 157.268C117.066 158.063 116.424 159.644 117.114 160.811C116.25 160.953 115.438 161.313 114.752 161.858C114.067 162.402 113.532 163.113 113.198 163.922C112.775 165.209 112.673 166.58 112.9 167.915C113.154 170.057 113.651 172.163 114.382 174.192L117.968 167.061Z" fill="#57263C"/>
<path d="M158.73 160.067C157.088 155.344 154.437 151.037 150.962 147.445C147.487 143.854 143.271 141.065 138.609 139.272C133.946 137.48 128.949 136.727 123.967 137.067C118.984 137.407 114.135 138.831 109.758 141.24C105.382 143.649 101.583 146.985 98.6259 151.015C95.6691 155.045 93.626 159.673 92.6388 164.575C91.6517 169.477 91.7444 174.536 92.9104 179.398C94.0765 184.261 96.2878 188.81 99.3902 192.729C99.6984 193.118 100.019 193.507 100.346 193.883C100.37 193.908 100.389 193.933 100.413 193.957C101.217 194.884 102.071 195.766 102.971 196.599C103.206 196.815 103.452 197.037 103.699 197.247C104.167 197.667 104.648 198.068 105.147 198.45C105.345 198.605 105.536 198.759 105.739 198.907C106.528 199.506 107.348 200.061 108.192 200.592L108.229 200.611C108.47 200.759 108.716 200.907 108.963 201.049C109.407 201.314 109.863 201.567 110.319 201.808L110.609 201.956C111.274 202.302 111.952 202.629 112.649 202.931C112.791 202.993 112.945 203.055 113.086 203.116C113.099 203.123 113.105 203.123 113.117 203.129C113.444 203.265 113.771 203.394 114.103 203.518C115.197 203.936 116.312 204.294 117.444 204.592C120.334 205.363 123.311 205.753 126.302 205.752C127.393 205.752 128.472 205.703 129.538 205.598C131.974 205.372 134.38 204.886 136.713 204.147C136.719 204.147 136.725 204.141 136.731 204.141C138.205 203.671 139.644 203.1 141.04 202.431C141.046 202.425 141.058 202.425 141.064 202.419C141.379 202.271 141.681 202.11 141.989 201.956L142.137 201.882C142.383 201.752 142.63 201.623 142.877 201.487C143.493 201.148 144.097 200.79 144.695 200.407C144.861 200.308 145.022 200.203 145.188 200.092C145.422 199.938 145.656 199.777 145.885 199.611C146.186 199.401 146.489 199.185 146.784 198.963C146.877 198.895 146.976 198.827 147.068 198.753C152.843 194.364 157.081 188.257 159.176 181.307C161.271 174.358 161.115 166.922 158.73 160.067ZM145.934 197.253C145.73 197.414 145.521 197.568 145.311 197.71C145.108 197.864 144.905 198.012 144.695 198.148C144.516 198.278 144.337 198.401 144.152 198.518L144.097 198.555C143.961 198.648 143.826 198.734 143.69 198.821C143.179 199.142 142.661 199.45 142.137 199.747L141.97 199.839C141.736 199.969 141.502 200.092 141.268 200.216C141.237 200.234 141.2 200.247 141.169 200.265L141.132 200.284C140.836 200.438 140.534 200.586 140.232 200.728C139.067 201.29 137.866 201.776 136.639 202.185C136.478 202.24 136.318 202.296 136.158 202.345C133.95 203.048 131.673 203.512 129.365 203.728C128.354 203.82 127.331 203.869 126.302 203.869C123.473 203.875 120.657 203.506 117.925 202.771C116.523 202.404 115.149 201.938 113.814 201.376C113.746 201.345 113.672 201.32 113.604 201.29C113.53 201.259 113.462 201.234 113.395 201.203C113.321 201.172 113.253 201.141 113.179 201.104C112.6 200.851 112.026 200.574 111.465 200.284L111.194 200.142C110.51 199.784 109.838 199.401 109.185 198.994C108.994 198.876 108.796 198.753 108.611 198.623C108.562 198.592 108.519 198.562 108.47 198.531C108.032 198.241 107.594 197.938 107.169 197.623C106.88 197.407 106.59 197.191 106.306 196.969C105.832 196.611 105.375 196.229 104.932 195.834C104.698 195.636 104.469 195.42 104.248 195.216C103.374 194.408 102.546 193.551 101.77 192.649C101.511 192.353 101.258 192.056 101.018 191.748C100.963 191.687 100.911 191.623 100.863 191.556C96.8586 186.496 94.4497 180.356 93.944 173.92C93.4383 167.483 94.8587 161.041 98.0241 155.416C101.189 149.791 105.956 145.238 111.717 142.336C117.477 139.435 123.97 138.317 130.368 139.126C136.765 139.934 142.777 142.633 147.636 146.876C152.496 151.12 155.983 156.717 157.653 162.953C159.323 169.189 159.101 175.782 157.013 181.891C154.926 188 151.069 193.348 145.934 197.253Z" fill="#724F5E"/>
<path d="M158.73 279.105C157.088 274.383 154.437 270.075 150.962 266.484C147.487 262.892 143.271 260.103 138.609 258.31C133.946 256.518 128.949 255.765 123.967 256.105C118.984 256.445 114.135 257.869 109.758 260.278C105.382 262.687 101.583 266.023 98.6259 270.053C95.6692 274.083 93.626 278.711 92.6388 283.613C91.6517 288.515 91.7444 293.574 92.9104 298.436C94.0765 303.299 96.2878 307.848 99.3901 311.767C99.6983 312.156 100.019 312.545 100.345 312.921C100.37 312.946 100.388 312.971 100.413 312.995C101.217 313.922 102.071 314.804 102.971 315.637C103.206 315.853 103.452 316.075 103.699 316.285C104.167 316.705 104.648 317.106 105.147 317.489C106.122 318.258 107.139 318.973 108.192 319.63L108.229 319.649C108.913 320.075 109.61 320.47 110.319 320.846L110.608 320.994C111.274 321.34 111.952 321.667 112.649 321.969C112.79 322.031 112.944 322.093 113.086 322.154C113.098 322.161 113.105 322.161 113.117 322.167C114.524 322.753 115.97 323.242 117.444 323.63C120.334 324.401 123.311 324.791 126.302 324.79C127.393 324.79 128.471 324.741 129.538 324.636C131.974 324.41 134.379 323.924 136.712 323.185C136.719 323.185 136.725 323.179 136.731 323.179C138.205 322.709 139.644 322.138 141.039 321.469C141.045 321.463 141.058 321.463 141.064 321.457C141.378 321.309 141.681 321.148 141.989 320.994L142.137 320.92C142.383 320.79 142.63 320.661 142.876 320.525C143.493 320.186 144.097 319.828 144.695 319.445C144.861 319.346 145.021 319.241 145.188 319.13C145.73 318.772 146.266 318.39 146.784 318.001C146.877 317.933 146.975 317.865 147.068 317.791C152.842 313.402 157.081 307.295 159.176 300.345C161.271 293.396 161.115 285.961 158.73 279.105Z" fill="white"/>
<path d="M137.634 304.579C140.476 304.579 142.78 302.272 142.78 299.426C142.78 296.58 140.476 294.273 137.634 294.273C134.791 294.273 132.487 296.58 132.487 299.426C132.487 302.272 134.791 304.579 137.634 304.579Z" fill="#57263C"/>
<path d="M139.067 294.416C139.958 294.416 140.833 294.647 141.608 295.087C142.382 295.528 143.03 296.162 143.486 296.928C143.943 297.693 144.193 298.565 144.212 299.456C144.232 300.348 144.02 301.229 143.597 302.014C144.043 301.456 144.368 300.81 144.551 300.118C144.734 299.426 144.771 298.704 144.66 297.997C144.549 297.291 144.292 296.615 143.906 296.013C143.519 295.411 143.012 294.896 142.416 294.502C141.82 294.107 141.149 293.841 140.444 293.721C139.74 293.6 139.018 293.628 138.325 293.802C137.632 293.976 136.983 294.293 136.419 294.732C135.855 295.172 135.388 295.724 135.049 296.354C135.53 295.749 136.142 295.26 136.837 294.925C137.533 294.589 138.295 294.415 139.067 294.416Z" fill="#57263C"/>
<path d="M128.016 299.415C136.366 299.415 143.134 292.638 143.134 284.278C143.134 275.918 136.366 269.141 128.016 269.141C119.667 269.141 112.899 275.918 112.899 284.278C112.899 292.638 119.667 299.415 128.016 299.415Z" fill="#57263C"/>
<path d="M116.151 274.886C118.756 271.953 122.397 270.147 126.306 269.851C130.215 269.555 134.086 270.791 137.102 273.299C136.979 273.181 136.856 273.062 136.728 272.948C133.742 270.269 129.815 268.888 125.812 269.108C121.808 269.328 118.056 271.132 115.381 274.122C112.706 277.113 111.326 281.044 111.546 285.053C111.766 289.062 113.567 292.819 116.554 295.497C116.582 295.523 116.611 295.549 116.64 295.574C116.768 295.688 116.9 295.796 117.032 295.906C114.191 293.2 112.512 289.496 112.348 285.574C112.184 281.652 113.547 277.82 116.151 274.886Z" fill="#57263C"/>
<path d="M127.888 299.287C133.266 299.287 137.625 294.922 137.625 289.538C137.625 284.153 133.266 279.789 127.888 279.789C122.511 279.789 118.152 284.153 118.152 289.538C118.152 294.922 122.511 299.287 127.888 299.287Z" fill="#A0616A"/>
<path d="M145.311 314.939V318.21C144.713 318.593 144.109 318.951 143.493 319.29C143.246 319.426 143 319.556 142.753 319.685L142.605 319.76C142.297 319.914 141.995 320.074 141.681 320.222C141.675 320.229 141.662 320.229 141.656 320.235C140.261 320.903 138.821 321.474 137.347 321.944C137.341 321.944 137.335 321.951 137.329 321.951C134.996 322.69 132.591 323.176 130.154 323.401C129.088 323.506 128.009 323.555 126.918 323.555C123.928 323.556 120.95 323.166 118.061 322.395C116.587 322.007 115.141 321.518 113.734 320.932C113.721 320.926 113.715 320.926 113.703 320.92C113.561 320.858 113.407 320.796 113.265 320.735C112.569 320.432 111.891 320.105 111.225 319.76L110.935 319.611C110.226 319.235 109.53 318.84 108.846 318.414L108.809 318.396C107.755 317.738 106.739 317.023 105.764 316.254C105.264 315.871 104.784 315.47 104.315 315.05C104.069 314.841 103.822 314.618 103.588 314.402C102.687 313.57 101.833 312.688 101.03 311.761C101.136 311.118 101.293 310.484 101.498 309.866L101.504 309.86C101.541 309.754 101.585 309.651 101.634 309.551C101.668 309.463 101.707 309.376 101.751 309.292C102.854 307.224 104.852 306.712 107.329 306.601C108.729 306.539 110.276 306.607 111.909 306.589C112.772 306.582 113.666 306.552 114.56 306.471C120.2 305.959 119.177 302.626 119.429 300.83C119.682 299.09 121.248 300.596 121.352 300.694L121.358 300.701C124.55 302.196 128.081 302.816 131.59 302.497C132.195 302.423 132.799 302.379 133.403 302.361C134.993 302.342 134.648 302.799 134.099 303.176C133.833 303.351 133.555 303.508 133.267 303.645C133.267 303.645 133.014 305.188 132.756 307.496C132.509 309.705 136.737 310.742 137.089 310.823C137.096 310.827 137.105 310.83 137.113 310.829C138.657 310.428 140.283 310.471 141.804 310.952H141.81C142.679 311.272 143.455 311.805 144.066 312.501C144.678 313.197 145.106 314.035 145.311 314.939Z" fill="#83D9DC"/>
<path d="M113.795 318.908C113.795 319.365 113.783 319.803 113.765 320.216C113.759 320.463 113.746 320.704 113.734 320.932C113.722 320.926 113.715 320.926 113.703 320.92C113.561 320.858 113.407 320.797 113.265 320.735C112.569 320.432 111.891 320.105 111.225 319.76L110.935 319.612C110.226 319.235 109.53 318.84 108.846 318.414C108.864 318.198 108.895 317.982 108.926 317.766C108.994 317.291 109.049 316.809 109.086 316.334C109.329 312.996 108.724 309.65 107.329 306.607V306.601C107.206 306.354 107.132 306.218 107.132 306.218C107.132 306.218 108.926 304.675 111.484 306.218C111.647 306.315 111.791 306.44 111.909 306.589C113.45 308.41 113.869 314.532 113.795 318.908Z" fill="#57263C"/>
<path d="M141.785 318.068C141.761 318.76 141.724 319.482 141.681 320.216V320.222C141.675 320.229 141.662 320.229 141.656 320.235C140.261 320.903 138.821 321.474 137.347 321.944C137.341 321.944 137.335 321.951 137.329 321.951L137.261 320.216L137.255 319.988L136.928 311.545C136.92 311.354 136.95 311.163 137.017 310.983C137.083 310.804 137.186 310.641 137.318 310.502C137.45 310.364 137.608 310.253 137.784 310.178C137.96 310.103 138.149 310.064 138.34 310.063H141.465C141.619 310.063 141.73 310.378 141.804 310.946V310.952C141.956 313.322 141.949 315.699 141.785 318.068Z" fill="#57263C"/>
<path d="M119.561 277.351V287.103H121.816L124.685 284.024L124.301 287.103H134.268L133.652 284.024L134.884 287.103H136.474V277.351H119.561Z" fill="#57263C"/>
<path d="M118.024 288.897C118.448 288.897 118.792 288.265 118.792 287.486C118.792 286.706 118.448 286.075 118.024 286.075C117.599 286.075 117.255 286.706 117.255 287.486C117.255 288.265 117.599 288.897 118.024 288.897Z" fill="#A0616A"/>
<path d="M137.753 288.897C138.178 288.897 138.522 288.265 138.522 287.486C138.522 286.706 138.178 286.075 137.753 286.075C137.329 286.075 136.985 286.706 136.985 287.486C136.985 288.265 137.329 288.897 137.753 288.897Z" fill="#A0616A"/>
<path d="M147.401 316.766C146.883 317.155 146.347 317.537 145.804 317.895C145.638 318.006 145.478 318.111 145.311 318.21C144.713 318.593 144.109 318.951 143.493 319.29C143.246 319.426 143 319.556 142.753 319.685V312.884C142.753 312.884 143.739 313.674 145.311 314.988C145.508 315.155 145.712 315.328 145.928 315.513C146.384 315.896 146.877 316.315 147.401 316.766Z" fill="#83D9DC"/>
<path d="M158.73 279.105C157.088 274.383 154.437 270.075 150.962 266.484C147.487 262.892 143.271 260.103 138.609 258.31C133.946 256.518 128.949 255.765 123.967 256.105C118.984 256.445 114.135 257.869 109.758 260.278C105.382 262.687 101.583 266.023 98.6259 270.053C95.6692 274.083 93.626 278.711 92.6388 283.613C91.6517 288.515 91.7444 293.574 92.9104 298.436C94.0765 303.299 96.2878 307.848 99.3901 311.767C99.6983 312.156 100.019 312.545 100.345 312.921C100.37 312.946 100.388 312.971 100.413 312.995C101.217 313.922 102.071 314.804 102.971 315.637C103.206 315.853 103.452 316.075 103.699 316.285C104.167 316.705 104.648 317.106 105.147 317.489C106.122 318.258 107.139 318.973 108.192 319.63L108.229 319.649C108.913 320.075 109.61 320.47 110.319 320.846L110.608 320.994C111.274 321.34 111.952 321.667 112.649 321.969C112.79 322.031 112.944 322.093 113.086 322.154C113.098 322.161 113.105 322.161 113.117 322.167C114.524 322.753 115.97 323.242 117.444 323.63C120.334 324.401 123.311 324.791 126.302 324.79C127.393 324.79 128.471 324.741 129.538 324.636C131.974 324.41 134.379 323.924 136.712 323.185C136.719 323.185 136.725 323.179 136.731 323.179C138.205 322.709 139.644 322.138 141.039 321.469C141.045 321.463 141.058 321.463 141.064 321.457C141.378 321.309 141.681 321.148 141.989 320.994L142.137 320.92C142.383 320.79 142.63 320.661 142.876 320.525C143.493 320.186 144.097 319.828 144.695 319.445C144.861 319.346 145.021 319.241 145.188 319.13C145.73 318.772 146.266 318.39 146.784 318.001C146.877 317.933 146.975 317.865 147.068 317.791C152.842 313.402 157.081 307.295 159.176 300.345C161.271 293.396 161.115 285.961 158.73 279.105ZM145.934 316.291C145.73 316.452 145.521 316.606 145.311 316.748C145.108 316.902 144.904 317.05 144.695 317.186C144.516 317.316 144.337 317.439 144.152 317.556C143.998 317.661 143.844 317.76 143.69 317.859C143.178 318.18 142.661 318.488 142.137 318.785L141.97 318.877C141.736 319.007 141.502 319.13 141.268 319.254C141.237 319.272 141.2 319.285 141.169 319.303L141.132 319.322C140.836 319.476 140.534 319.624 140.232 319.766C139.066 320.328 137.866 320.815 136.638 321.223C136.478 321.278 136.318 321.334 136.158 321.383C133.95 322.086 131.672 322.55 129.365 322.765C128.354 322.858 127.331 322.907 126.302 322.907C123.473 322.913 120.656 322.544 117.925 321.809C116.523 321.442 115.149 320.976 113.814 320.414C113.672 320.358 113.53 320.297 113.394 320.241C113.321 320.21 113.253 320.179 113.179 320.142C112.599 319.889 112.026 319.612 111.465 319.322L111.194 319.18C110.51 318.822 109.838 318.439 109.184 318.032C108.944 317.883 108.704 317.729 108.47 317.569C107.73 317.081 107.009 316.557 106.306 316.007C105.831 315.649 105.375 315.267 104.931 314.872C104.697 314.674 104.469 314.458 104.247 314.254C103.373 313.446 102.546 312.589 101.769 311.687C101.511 311.391 101.258 311.094 101.017 310.786C100.963 310.725 100.911 310.661 100.863 310.594C96.8582 305.534 94.4493 299.394 93.9437 292.958C93.438 286.521 94.8584 280.079 98.0237 274.454C101.189 268.829 105.956 264.276 111.716 261.374C117.477 258.473 123.97 257.355 130.367 258.164C136.765 258.972 142.776 261.671 147.636 265.914C152.496 270.158 155.983 275.755 157.653 281.991C159.323 288.227 159.1 294.82 157.013 300.929C154.926 307.038 151.069 312.386 145.934 316.291Z" fill="#724F5E"/>
<path d="M126.496 424.898C133.926 424.898 139.949 418.867 139.949 411.427C139.949 403.987 133.926 397.956 126.496 397.956C119.065 397.956 113.042 403.987 113.042 411.427C113.042 418.867 119.065 424.898 126.496 424.898Z" fill="#57263C"/>
<path d="M115.995 404.164C118.169 401.987 118.609 398.899 116.979 397.266C115.348 395.633 112.264 396.074 110.09 398.251C107.916 400.428 107.475 403.516 109.106 405.149C110.736 406.782 113.82 406.341 115.995 404.164Z" fill="#57263C"/>
<path d="M140.518 399.886C141.424 397.763 139.866 395.061 137.038 393.852C134.211 392.642 131.185 393.383 130.279 395.506C129.373 397.63 130.931 400.331 133.758 401.541C136.586 402.75 139.612 402.009 140.518 399.886Z" fill="#57263C"/>
<path d="M142.588 437.558L141.003 435.06C140.331 433.556 139.09 432.38 137.553 431.789C136.016 431.199 134.308 431.243 132.803 431.911C131.298 432.579 130.119 433.817 129.524 435.353C128.929 436.89 128.966 438.6 129.628 440.11L130.078 441.728L130.591 443.564C132.668 443.302 134.717 442.854 136.714 442.226C136.72 442.225 136.726 442.223 136.73 442.218C138.206 441.75 139.647 441.179 141.042 440.507C141.05 440.499 141.058 440.499 141.066 440.491C141.376 440.343 141.679 440.188 141.99 440.032C142.041 440.009 142.09 439.983 142.138 439.954C142.386 439.83 142.635 439.697 142.876 439.565C143.125 439.433 143.365 439.293 143.598 439.145L142.588 437.558Z" fill="#CACACA"/>
<path d="M126.922 426.076C133.228 426.076 138.34 420.957 138.34 414.643C138.34 408.329 133.228 403.21 126.922 403.21C120.616 403.21 115.504 408.329 115.504 414.643C115.504 420.957 120.616 426.076 126.922 426.076Z" fill="#FFB6B6"/>
<path d="M143.412 437.068C142.153 434.971 140.589 433.072 138.773 431.435C137.529 430.322 135.919 429.707 134.251 429.708H118.167C117.24 429.707 116.323 429.897 115.472 430.266C114.622 430.634 113.856 431.173 113.221 431.85C112.587 432.527 112.098 433.326 111.785 434.2C111.471 435.073 111.34 436.001 111.399 436.928C111.434 437.45 111.528 437.967 111.679 438.468C111.794 438.831 111.936 439.185 112.106 439.526L112.899 441.113C112.961 441.137 113.023 441.168 113.085 441.191C113.101 441.199 113.109 441.199 113.116 441.207C113.442 441.339 113.769 441.471 114.103 441.596C115.196 442.014 116.312 442.373 117.444 442.669C119.267 443.16 121.128 443.495 123.007 443.673C124.103 443.774 125.199 443.829 126.302 443.829C127.398 443.829 128.47 443.774 129.542 443.673C129.892 443.642 130.241 443.603 130.591 443.564C132.668 443.302 134.717 442.854 136.714 442.226C136.72 442.225 136.725 442.222 136.73 442.218C138.206 441.75 139.647 441.178 141.042 440.507C141.05 440.499 141.057 440.499 141.065 440.491C141.376 440.343 141.679 440.188 141.99 440.032C142.041 440.009 142.09 439.983 142.138 439.954C142.386 439.83 142.635 439.697 142.876 439.565C143.124 439.433 143.365 439.293 143.598 439.145C143.847 439.013 144.08 438.865 144.321 438.717C144.026 438.134 143.723 437.589 143.412 437.068Z" fill="#CACACA"/>
<path d="M121.081 431.792C119.592 431.095 117.889 431.017 116.342 431.573C114.796 432.13 113.533 433.278 112.829 434.764L111.399 436.927L110.715 437.962L109.674 439.534C109.892 439.65 110.102 439.767 110.319 439.884L110.607 440.032C111.275 440.374 111.951 440.701 112.65 441.004C112.728 441.043 112.814 441.074 112.899 441.113C112.961 441.137 113.023 441.168 113.085 441.191C113.101 441.199 113.109 441.199 113.116 441.207C113.442 441.339 113.769 441.471 114.103 441.596C115.196 442.014 116.312 442.373 117.444 442.669C119.267 443.159 121.128 443.495 123.008 443.673L123.552 441.829L124.08 440.071C124.777 438.574 124.852 436.862 124.29 435.311C123.727 433.759 122.573 432.493 121.081 431.792Z" fill="#CACACA"/>
<path d="M114.925 407.452C117.534 409.252 120.631 410.211 123.8 410.198C122.669 410.983 121.382 411.513 120.028 411.752C124.241 412.657 128.595 412.681 132.819 411.824C133.757 411.673 134.663 411.362 135.496 410.903C135.911 410.671 136.273 410.354 136.558 409.972C136.842 409.591 137.044 409.154 137.149 408.69C137.429 407.085 136.18 405.626 134.882 404.643C132.894 403.161 130.603 402.14 128.173 401.654C125.743 401.168 123.235 401.229 120.831 401.832C119.23 402.155 117.772 402.979 116.67 404.187C116.137 404.801 115.815 405.571 115.752 406.382C115.688 407.194 115.888 408.005 116.32 408.694L114.925 407.452Z" fill="#57263C"/>
<path d="M158.734 398.143C157.093 393.419 154.442 389.111 150.967 385.519C147.492 381.927 143.276 379.137 138.613 377.345C133.95 375.552 128.953 374.799 123.97 375.138C118.987 375.478 114.138 376.902 109.761 379.311C105.384 381.721 101.585 385.057 98.6276 389.087C95.6707 393.118 93.6276 397.746 92.6406 402.648C91.6535 407.551 91.7465 412.61 92.9129 417.473C94.0793 422.336 96.2911 426.885 99.3941 430.804C99.6968 431.193 100.024 431.582 100.35 431.956C100.369 431.983 100.389 432.009 100.412 432.033C101.217 432.96 102.073 433.841 102.976 434.671C103.209 434.889 103.45 435.114 103.699 435.324C104.165 435.745 104.647 436.141 105.152 436.523C105.346 436.678 105.54 436.834 105.742 436.982C106.527 437.581 107.351 438.133 108.19 438.67C108.204 438.67 108.218 438.676 108.228 438.685C108.469 438.833 108.718 438.981 108.967 439.121C109.2 439.261 109.441 439.401 109.674 439.534C109.891 439.65 110.101 439.767 110.319 439.884L110.606 440.032C111.275 440.374 111.95 440.701 112.65 441.004C112.727 441.043 112.813 441.074 112.898 441.113C112.961 441.136 113.023 441.167 113.085 441.191C113.1 441.199 113.108 441.199 113.116 441.206C113.442 441.339 113.769 441.471 114.103 441.595C115.196 442.014 116.312 442.372 117.444 442.669C119.267 443.159 121.128 443.495 123.007 443.673C124.103 443.774 125.199 443.828 126.302 443.828C127.398 443.828 128.47 443.774 129.542 443.673C129.892 443.642 130.241 443.603 130.591 443.564C132.668 443.301 134.717 442.853 136.714 442.226C136.72 442.225 136.725 442.222 136.729 442.218C138.205 441.75 139.647 441.178 141.042 440.506C141.05 440.498 141.057 440.498 141.065 440.491C141.376 440.343 141.679 440.187 141.99 440.032C142.04 440.009 142.09 439.983 142.137 439.954C142.386 439.829 142.635 439.697 142.876 439.565C143.124 439.432 143.365 439.292 143.598 439.145C143.847 439.012 144.08 438.864 144.321 438.717C144.445 438.639 144.57 438.561 144.694 438.483C144.865 438.382 145.02 438.281 145.191 438.164C145.424 438.016 145.657 437.853 145.882 437.69C146.186 437.48 146.489 437.262 146.784 437.036C146.883 436.971 146.979 436.901 147.071 436.826C152.842 432.434 157.077 426.327 159.172 419.379C161.267 412.431 161.113 404.998 158.734 398.143ZM145.937 435.324C145.735 435.488 145.525 435.643 145.316 435.784C145.105 435.939 144.904 436.087 144.694 436.227C144.515 436.351 144.336 436.476 144.15 436.593C144.133 436.607 144.115 436.62 144.095 436.632C143.963 436.725 143.823 436.811 143.691 436.896C143.598 436.951 143.505 437.013 143.412 437.067C143.14 437.238 142.868 437.402 142.588 437.557C142.441 437.651 142.285 437.736 142.137 437.822C142.083 437.853 142.028 437.884 141.974 437.915C141.733 438.048 141.5 438.164 141.267 438.289C141.236 438.312 141.197 438.32 141.174 438.343C141.16 438.344 141.146 438.349 141.135 438.359C140.84 438.514 140.537 438.662 140.234 438.802C139.067 439.364 137.865 439.85 136.636 440.257C136.481 440.312 136.318 440.374 136.162 440.421C134.181 441.05 132.143 441.488 130.078 441.728C129.845 441.759 129.604 441.782 129.363 441.805C128.353 441.899 127.335 441.945 126.302 441.945C125.385 441.945 124.46 441.907 123.551 441.829C121.651 441.67 119.768 441.342 117.926 440.848C116.524 440.482 115.15 440.014 113.816 439.448C113.745 439.417 113.676 439.394 113.606 439.362C113.528 439.331 113.466 439.308 113.396 439.277C113.318 439.246 113.256 439.215 113.178 439.176C112.673 438.958 112.168 438.717 111.679 438.468C111.609 438.429 111.539 438.398 111.469 438.359L111.197 438.219C111.034 438.133 110.871 438.048 110.715 437.962C110.195 437.682 109.682 437.378 109.185 437.067C108.998 436.951 108.796 436.826 108.609 436.702L108.469 436.608C108.034 436.313 107.599 436.017 107.172 435.698C106.884 435.48 106.589 435.27 106.31 435.044C105.836 434.686 105.377 434.305 104.934 433.909C104.701 433.714 104.468 433.496 104.251 433.294C103.376 432.487 102.548 431.629 101.772 430.726C101.515 430.431 101.259 430.135 101.018 429.824C100.964 429.762 100.917 429.699 100.862 429.629C96.8567 424.569 94.447 418.428 93.9408 411.991C93.4346 405.553 94.8548 399.11 98.0202 393.484C101.186 387.858 105.953 383.304 111.714 380.402C117.475 377.5 123.969 376.382 130.367 377.19C136.765 377.999 142.778 380.697 147.639 384.941C152.499 389.185 155.987 394.783 157.658 401.02C159.328 407.257 159.105 413.85 157.018 419.96C154.93 426.07 151.073 431.419 145.937 435.324Z" fill="#724F5E"/>
<path d="M183.75 230.157C171.793 220.055 157.162 213.65 141.636 211.723C126.111 209.795 110.36 212.427 96.3014 219.299C82.2426 226.171 70.4817 236.987 62.4498 250.429C54.4178 263.872 50.4612 279.363 51.0614 295.016C51.6615 310.67 56.7926 325.811 65.8301 338.597C74.8677 351.384 87.4221 361.265 101.966 367.037C116.509 372.81 132.415 374.225 147.747 371.111C163.08 367.997 177.177 360.488 188.325 349.498L287.317 433.135C288.824 434.404 290.772 435.022 292.733 434.855C294.695 434.687 296.51 433.748 297.781 432.243C299.052 430.737 299.675 428.789 299.514 426.824C299.352 424.86 298.419 423.039 296.92 421.762L296.909 421.753L197.917 338.116C209.417 321.589 214.339 301.359 211.718 281.389C209.097 261.418 199.123 243.148 183.75 230.157ZM177.368 330.062C169.656 339.213 159.407 345.869 147.917 349.188C136.428 352.507 124.213 352.34 112.818 348.708C101.423 345.076 91.3593 338.142 83.8999 328.784C76.4405 319.425 71.9202 308.061 70.9107 296.13C69.9012 284.199 72.4478 272.235 78.2285 261.753C84.0092 251.271 92.7643 242.741 103.387 237.241C114.009 231.741 126.022 229.519 137.905 230.855C149.789 232.192 161.01 237.027 170.15 244.749C182.406 255.103 190.051 269.909 191.405 285.908C192.759 301.908 187.709 317.79 177.368 330.062Z" fill="#724F5E"/>
<path opacity="0.3" d="M92.1658 337.289C80.5666 327.488 73.0726 313.678 71.1719 298.6C69.2712 283.523 73.1028 268.281 81.9058 255.901C80.7497 257.067 79.6321 258.288 78.5529 259.564C73.4324 265.64 69.5573 272.667 67.1489 280.243C64.7405 287.819 63.8458 295.796 64.5161 303.718C65.1864 311.64 67.4085 319.352 71.0554 326.414C74.7024 333.476 79.7028 339.75 85.7712 344.877C91.8397 350.005 98.8572 353.885 106.423 356.296C113.989 358.708 121.956 359.604 129.867 358.933C137.779 358.261 145.481 356.036 152.534 352.385C159.587 348.733 165.853 343.726 170.974 337.65C172.05 336.372 173.064 335.064 174.015 333.724C163.309 344.496 148.948 350.842 133.785 351.502C118.622 352.163 103.766 347.089 92.1658 337.289Z" fill="black"/>
<path d="M383.316 436.262C384.09 435.317 384.646 434.213 384.948 433.029C385.249 431.845 385.287 430.609 385.06 429.409C384.833 428.208 384.345 427.072 383.632 426.081C382.919 425.089 381.997 424.267 380.932 423.67L362.888 349.72L349.725 353.927L369.209 427.373C368.328 429.231 368.157 431.349 368.73 433.324C369.304 435.3 370.581 436.996 372.32 438.092C374.059 439.187 376.138 439.606 378.165 439.269C380.192 438.932 382.025 437.862 383.316 436.262Z" fill="#FFB6B6"/>
<path d="M373.99 388.96L364.371 397.269L350.913 408.886L344.969 378.434L344.347 375.267L343.857 372.754L357.494 348.97L368.862 349.623L369.639 349.67L369.654 349.842L369.833 351.437L372.164 372.427L372.218 372.933L373.99 388.96Z" fill="#724F5E"/>
<path d="M311.115 595.662L301.59 595.661L297.058 558.87L311.118 558.87L311.115 595.662Z" fill="#FFB6B6"/>
<path d="M313.545 604.907L282.829 604.906V604.517C282.829 601.342 284.089 598.298 286.331 596.053C288.573 593.808 291.614 592.547 294.785 592.546H294.785L313.546 592.547L313.545 604.907Z" fill="#57263C"/>
<path d="M410.573 596.439L401.047 596.439L396.515 559.647L410.575 559.648L410.573 596.439Z" fill="#FFB6B6"/>
<path d="M413.003 605.686L382.287 605.685V605.296C382.287 602.121 383.547 599.076 385.789 596.831C388.031 594.586 391.071 593.325 394.242 593.325H394.243L413.003 593.325L413.003 605.686Z" fill="#57263C"/>
<path d="M418.187 581.794L392.545 585.684L355.241 459.271L315.621 586.462L286.872 582.572L324.168 434.747V423.077L329.219 405.571L328.69 400.833L325.015 367.697L323.422 353.327L323.319 352.399C323.232 351.62 323.438 350.836 323.897 350.201C324.356 349.566 325.034 349.124 325.8 348.962L337.766 346.441H357.323L368.862 349.624L369.655 349.841L370.012 349.943L369.833 351.436L367.129 374.139L366.982 375.384L364.371 397.27L363.796 402.07C386.329 418.409 387.106 434.747 387.106 434.747L418.187 581.794Z" fill="#57263C"/>
<path d="M345.181 336.598C355.721 336.598 364.266 328.043 364.266 317.489C364.266 306.935 355.721 298.38 345.181 298.38C334.641 298.38 326.097 306.935 326.097 317.489C326.097 328.043 334.641 336.598 345.181 336.598Z" fill="#FFB6B6"/>
<path d="M365.225 397.679L327.473 402.622L328.178 408.022L365.931 403.079L365.225 397.679Z" fill="#724F5E"/>
<path d="M276.834 404.25C277.195 404.484 277.537 404.746 277.857 405.034L315.198 395.502L317.745 386.482L331.842 388.553L328.883 404.959C328.644 406.285 327.982 407.497 326.996 408.414C326.01 409.33 324.754 409.902 323.417 410.043L279.817 414.64C279.107 416.139 277.958 417.385 276.523 418.213C275.087 419.041 273.435 419.412 271.784 419.276C270.133 419.141 268.563 418.506 267.281 417.455C266 416.404 265.069 414.987 264.611 413.393C264.153 411.799 264.191 410.103 264.719 408.532C265.248 406.96 266.242 405.586 267.569 404.594C268.895 403.601 270.493 403.037 272.148 402.975C273.803 402.914 275.438 403.359 276.834 404.25Z" fill="#FFB6B6"/>
<path d="M334.27 353.832L327.665 348.775C325.879 348.097 323.432 350.024 323.003 351.887L313.679 390.011L333.104 404.015L335.824 399.736L334.27 353.832Z" fill="#724F5E"/>
<g opacity="0.2">
<path d="M372.164 372.427C370.516 373.083 368.835 373.654 367.129 374.139C366.585 374.302 366.026 374.458 365.474 374.606C361.838 375.616 358.101 376.221 354.332 376.411C352.709 376.48 351.084 376.435 349.468 376.279C347.733 376.105 346.018 375.767 344.347 375.267C344.293 375.252 344.231 375.236 344.176 375.221C340.702 374.233 337.517 372.421 334.891 369.938C334.304 369.366 333.756 368.755 333.251 368.109C331.801 366.33 330.736 364.267 330.126 362.053C329.516 359.839 329.374 357.521 329.708 355.249C329.773 354.837 329.861 354.429 329.973 354.027C330.265 352.932 330.653 351.865 331.13 350.837C331.34 350.355 331.573 349.88 331.822 349.413L340.602 346.441H357.323L368.862 349.624L369.639 349.67L369.654 349.841L370.012 349.943L369.833 351.436L372.164 372.427Z" fill="black"/>
</g>
<path d="M330.557 301.669C326.988 301.231 323.072 301.54 320.29 303.822C317.508 306.103 316.61 310.846 319.244 313.297C321.576 315.467 325.222 314.957 328.345 315.574C331.035 316.177 333.446 317.667 335.19 319.805C336.935 321.943 337.913 324.605 337.967 327.366C337.921 335.281 330.334 341.276 328.971 349.073C328.041 354.395 330.282 359.995 334.157 363.754C338.033 367.513 343.36 369.545 348.727 370.095C354.095 370.645 359.522 369.805 364.738 368.424C369.976 367.038 375.133 365.071 379.528 361.898C383.923 358.726 387.526 354.254 388.937 349.016C390.348 343.778 389.335 337.773 385.699 333.751C381.535 329.146 374.607 327.562 371.005 322.504C366.968 316.834 368.462 308.759 365.194 302.612C363.012 298.508 358.881 295.709 354.477 294.234C350.074 292.759 345.372 292.468 340.73 292.325C338.291 292.25 335.777 292.225 333.504 293.116C331.231 294.006 329.233 296.036 329.115 298.477C328.998 300.918 330.557 301.669 330.557 301.669Z" fill="#57263C"/>
<path d="M509.223 606H213.181C212.975 606 212.778 605.918 212.632 605.772C212.486 605.626 212.404 605.428 212.404 605.222C212.404 605.016 212.486 604.818 212.632 604.672C212.778 604.526 212.975 604.444 213.181 604.444H509.223C509.429 604.444 509.627 604.526 509.773 604.672C509.918 604.818 510 605.016 510 605.222C510 605.428 509.918 605.626 509.773 605.772C509.627 605.918 509.429 606 509.223 606Z" fill="#CACACA"/>
</g>
<defs>
<clipPath id="clip0_121_84">
<rect width="459" height="513" fill="white" transform="translate(51 93)"/>
</clipPath>
</defs>
</svg>
