<svg xmlns="http://www.w3.org/2000/svg" width="32" height="32" fill="none"><g clip-path="url(#a)"><path fill="#F498C2" d="M16.526 31.734c-4.14 0-8.033-1.612-10.96-4.54a15.398 15.398 0 0 1-4.54-10.96c0-4.14 1.612-8.032 4.54-10.96a15.399 15.399 0 0 1 10.96-4.54c3.151 0 6.185.94 8.772 2.72a15.489 15.489 0 0 1 5.608 6.987c.16.4.033.858-.312 1.117a2.389 2.389 0 0 0-.684 3.014.951.951 0 0 1-1.173 1.373 4.837 4.837 0 0 0-6.648 4.478c0 1.272.49 2.474 1.383 3.383a.952.952 0 0 1-.224 1.5 3.038 3.038 0 0 0-1.166 4.205.952.952 0 0 1-.51 1.382c-1.621.558-3.32.841-5.046.841Z"/><path fill="#57263C" d="M16 10.801a3.121 3.121 0 0 1-3.118-3.117A3.121 3.121 0 0 1 16 4.566a3.121 3.121 0 0 1 3.118 3.118A3.121 3.121 0 0 1 16 10.8ZM9.18 18.054a3.121 3.121 0 0 1-3.117-3.117 3.121 3.121 0 0 1 3.118-3.118 3.121 3.121 0 0 1 3.117 3.118 3.121 3.121 0 0 1-3.117 3.117ZM14.719 26.843a3.121 3.121 0 0 1-3.118-3.118 3.121 3.121 0 0 1 3.118-3.117 3.121 3.121 0 0 1 3.118 3.117 3.121 3.121 0 0 1-3.118 3.118Z"/><path fill="#000" d="M30.905 10.441a15.489 15.489 0 0 0-5.607-6.987 15.413 15.413 0 0 0-8.772-2.72v31a15.47 15.47 0 0 0 5.046-.841.95.95 0 0 0 .51-1.382 3.038 3.038 0 0 1 1.166-4.204.95.95 0 0 0 .223-1.502 4.803 4.803 0 0 1-1.383-3.382 4.837 4.837 0 0 1 6.648-4.478.951.951 0 0 0 1.173-1.373 2.387 2.387 0 0 1 .685-3.014.951.951 0 0 0 .311-1.117Z" opacity=".15"/></g><defs><clipPath id="a"><path fill="#fff" d="M.5.734h31v31H.5z"/></clipPath></defs></svg>