<svg width="20" height="21" viewBox="0 0 20 21" fill="none" xmlns="http://www.w3.org/2000/svg">
<g clip-path="url(#clip0_36_135)">
<path d="M16.6818 10.329V10.7633C16.6818 11.235 16.2991 11.6174 15.8271 11.6174H15.6145L13.854 20.1581H6.3029L4.54189 11.6144C4.09725 11.5843 3.74561 11.2153 3.74561 10.7633V10.3291H16.6818V10.329Z" fill="#F498C2"/>
<path d="M14.56 16.7326L13.8539 20.1581H6.30279L4.54178 11.6144C4.24756 11.5945 3.99478 11.4257 3.85693 11.1831H7.55232C8.66435 14.3217 11.3657 16.5765 14.56 16.7326Z" fill="#F498C2"/>
<path d="M16.8377 8.64584C16.8377 9.03912 16.7835 9.42001 16.6819 9.78158V10.7633C16.6819 11.235 16.2992 11.6174 15.8272 11.6174H12.9915V13.112C12.9915 13.4657 12.7046 13.7525 12.3505 13.7525C11.9965 13.7525 11.7095 13.4657 11.7095 13.112V11.6174H4.60035C4.12828 11.6174 3.74566 11.235 3.74566 10.7633V9.78158C3.64402 9.42009 3.58984 9.0392 3.58984 8.64584C3.58984 6.66311 4.96777 4.99725 6.83249 4.52573C7.55308 3.53467 8.69483 2.8612 10.0001 2.7585V2.7455C10.0263 2.74503 10.0524 2.74432 10.0787 2.74432C10.1239 2.74432 10.1689 2.74503 10.2138 2.74639C10.2586 2.74503 10.3037 2.74432 10.3488 2.74432C10.3751 2.74432 10.4012 2.74503 10.4274 2.7455V2.7585C11.7328 2.8612 12.8745 3.53467 13.5951 4.52573C15.4597 4.99725 16.8377 6.66311 16.8377 8.64584Z" fill="#57263C"/>
<path d="M16.8375 8.64585C16.8375 9.03913 16.7833 9.42003 16.6817 9.78159V10.7633C16.6817 11.235 16.2991 11.6174 15.827 11.6174H12.9914V13.112C12.9914 13.4657 12.7044 13.7525 12.3504 13.7525C11.9964 13.7525 11.7094 13.4657 11.7094 13.112V11.6174H4.60021C4.12814 11.6174 3.74553 11.235 3.74553 10.7633V9.78159C3.74143 9.76694 3.73783 9.75202 3.73389 9.73729C4.30834 9.84991 4.90326 9.90921 5.51279 9.90921C9.24946 9.90921 12.4391 7.68523 13.6983 4.55414C15.5101 5.06031 16.8375 6.70003 16.8375 8.64585Z" fill="#F498C2"/>
<path d="M5.7597 3.93344C7.19423 3.93344 8.35693 5.07817 8.35693 6.49027C8.35693 7.90238 7.19419 9.04702 5.7597 9.04702C4.32529 9.04702 3.1626 7.90234 3.1626 6.49027C3.16264 5.07817 4.32533 3.93344 5.7597 3.93344Z" fill="#57263C"/>
<path d="M6.58122 6.10967C6.58122 6.81721 6.0072 7.39077 5.29916 7.39077C4.59107 7.39077 4.01709 6.81717 4.01709 6.10967C4.01709 5.40218 4.59107 4.82858 5.29916 4.82858C6.00724 4.82858 6.58122 5.40218 6.58122 6.10967Z" fill="#57263C"/>
<path d="M13.7975 4.22598C13.0126 3.2043 11.8395 2.55391 10.5494 2.42614C10.5131 2.41231 10.474 2.40438 10.4331 2.40368L10.4131 2.40329C10.3465 2.40192 10.2798 2.4025 10.2134 2.40434C10.1471 2.4025 10.0803 2.40192 10.0137 2.40329L9.99377 2.40368C9.95284 2.40442 9.91369 2.41231 9.87748 2.42614C8.75628 2.53719 7.72378 3.04321 6.95737 3.8443C6.59116 3.68238 6.18589 3.59153 5.75925 3.59153C5.53718 3.59153 5.32109 3.61672 5.113 3.66301L4.26047 0.745945C4.20754 0.564891 4.01773 0.460868 3.83644 0.513797C3.65519 0.566688 3.55113 0.756414 3.6041 0.937507L4.4664 3.88785C3.49238 4.36047 2.82031 5.34922 2.82031 6.49019C2.82031 7.06581 2.99203 7.60234 3.28656 8.05386C3.26109 8.24816 3.24766 8.44573 3.24766 8.64581C3.24766 9.04683 3.30008 9.44417 3.40348 9.82772V10.329V10.7633C3.40348 10.7936 3.40496 10.8236 3.40723 10.8533C3.40762 10.8586 3.40797 10.8638 3.40844 10.869C3.41105 10.8988 3.41473 10.9282 3.41945 10.9573C3.4198 10.9595 3.42027 10.9616 3.42062 10.9638C3.49683 11.4129 3.82426 11.7776 4.253 11.9078L5.96784 20.2271C6.00058 20.3859 6.14046 20.5 6.30269 20.5H13.8537C14.016 20.5 14.1558 20.386 14.1886 20.2271L15.8933 11.9574C15.9059 11.9568 15.9185 11.9555 15.9311 11.9544C15.9374 11.9539 15.9439 11.9536 15.9502 11.9529C15.9669 11.9512 15.9834 11.949 15.9999 11.9466C16.0029 11.9462 16.0061 11.9458 16.0091 11.9454C16.0286 11.9424 16.048 11.9389 16.0672 11.935C16.0716 11.9341 16.076 11.9329 16.0805 11.9319C16.095 11.9287 16.1096 11.9255 16.124 11.9218C16.1309 11.9201 16.1377 11.918 16.1445 11.9161C16.1563 11.9128 16.1682 11.9096 16.1799 11.906C16.1874 11.9037 16.1949 11.901 16.2023 11.8985C16.2131 11.8949 16.2239 11.8915 16.2345 11.8876C16.2424 11.8848 16.2502 11.8816 16.258 11.8785C16.268 11.8746 16.2781 11.8708 16.288 11.8667C16.296 11.8633 16.3039 11.8597 16.3119 11.8562C16.3214 11.8519 16.3309 11.8478 16.3402 11.8433C16.3481 11.8396 16.3559 11.8355 16.3638 11.8315C16.3729 11.8269 16.382 11.8224 16.3911 11.8175C16.3988 11.8134 16.4065 11.809 16.4141 11.8046C16.4229 11.7996 16.4318 11.7947 16.4405 11.7894C16.4482 11.7849 16.4557 11.78 16.4632 11.7753C16.4716 11.77 16.48 11.7647 16.4883 11.7592C16.4959 11.7542 16.5033 11.7489 16.5107 11.7438C16.5188 11.7381 16.5268 11.7325 16.5347 11.7267C16.542 11.7214 16.5492 11.7158 16.5564 11.7103C16.5641 11.7043 16.5719 11.6983 16.5795 11.6921C16.5865 11.6864 16.5935 11.6806 16.6004 11.6747C16.6078 11.6683 16.6152 11.662 16.6225 11.6555C16.6293 11.6495 16.636 11.6433 16.6426 11.6371C16.6498 11.6304 16.6568 11.6237 16.6638 11.6169C16.6703 11.6106 16.6767 11.6041 16.6831 11.5976C16.6899 11.5906 16.6966 11.5836 16.7032 11.5765C16.7094 11.5698 16.7155 11.563 16.7216 11.5562C16.7281 11.549 16.7344 11.5417 16.7407 11.5343C16.7466 11.5273 16.7524 11.5202 16.7582 11.5131C16.7643 11.5055 16.7703 11.498 16.7762 11.4903C16.7818 11.483 16.7873 11.4757 16.7927 11.4683C16.7984 11.4605 16.8041 11.4524 16.8096 11.4445C16.8148 11.437 16.82 11.4295 16.825 11.4219C16.8304 11.4137 16.8357 11.4055 16.8409 11.3971C16.8458 11.3894 16.8506 11.3817 16.8552 11.3739C16.8603 11.3654 16.8652 11.3568 16.87 11.3482C16.8745 11.3403 16.879 11.3324 16.8832 11.3244C16.8879 11.3156 16.8924 11.3068 16.8968 11.298C16.9009 11.2898 16.905 11.2817 16.9089 11.2735C16.9132 11.2644 16.9172 11.2553 16.9213 11.2462C16.9249 11.2379 16.9287 11.2296 16.9322 11.2212C16.9361 11.2119 16.9397 11.2025 16.9433 11.1931C16.9465 11.1846 16.9499 11.1762 16.953 11.1677C16.9565 11.1581 16.9596 11.1483 16.9629 11.1386C16.9657 11.1301 16.9686 11.1216 16.9712 11.113C16.9743 11.103 16.977 11.0928 16.9799 11.0827C16.9822 11.0742 16.9847 11.0657 16.9868 11.0572C16.9895 11.0467 16.9918 11.0361 16.9941 11.0255C16.996 11.0171 16.9981 11.0087 16.9998 11.0002C17.002 10.9893 17.0038 10.9783 17.0057 10.9672C17.0071 10.9589 17.0088 10.9507 17.01 10.9422C17.0118 10.9307 17.0131 10.919 17.0145 10.9073C17.0154 10.8994 17.0166 10.8914 17.0174 10.8834C17.0187 10.8705 17.0195 10.8573 17.0204 10.8442C17.0209 10.8374 17.0216 10.8306 17.0219 10.8237C17.0229 10.8037 17.0234 10.7836 17.0234 10.7633V10.3291V9.82776C17.1269 9.44421 17.1793 9.04687 17.1793 8.64585C17.1792 6.58671 15.7949 4.78644 13.7975 4.22598ZM10.0266 3.09934C10.051 3.09746 10.0746 3.09301 10.0971 3.08629C10.1326 3.08645 10.1679 3.08707 10.2031 3.08813C10.21 3.08832 10.2169 3.08832 10.2238 3.08813C10.259 3.08707 10.2943 3.08641 10.3298 3.08629C10.3524 3.09301 10.376 3.09746 10.4003 3.09934C11.5696 3.19133 12.6331 3.78453 13.3182 4.7268C13.3652 4.79144 13.4333 4.83762 13.5109 4.85719C15.2682 5.30156 16.4955 6.85953 16.4955 8.64585C16.4955 9.00046 16.4474 9.35144 16.3524 9.68905C16.3439 9.71917 16.3396 9.75034 16.3396 9.78163V10.7633C16.3396 11.0458 16.1096 11.2755 15.8268 11.2755H12.9912C12.8024 11.2755 12.6494 11.4286 12.6494 11.6174V13.112C12.6494 13.2767 12.5151 13.4107 12.3502 13.4107C12.1853 13.4107 12.0511 13.2767 12.0511 13.112V11.6174C12.0511 11.4286 11.898 11.2755 11.7092 11.2755H4.60003C4.31726 11.2755 4.08722 11.0458 4.08722 10.7633V9.78163C4.08722 9.75034 4.08293 9.71921 4.07445 9.68905C3.98961 9.38741 3.94246 9.07507 3.93328 8.75905C4.43515 9.1528 5.0696 9.3889 5.75925 9.3889C7.37987 9.3889 8.69835 8.08855 8.69835 6.49023C8.69835 5.56254 8.25366 4.73586 7.56409 4.20492C8.22448 3.56789 9.09135 3.17289 10.0266 3.09934ZM5.75925 4.27531C7.00284 4.27531 8.0146 5.2689 8.0146 6.49027C8.0146 7.71159 7.00284 8.70519 5.75925 8.70519C4.51574 8.70515 3.50406 7.71156 3.50406 6.49023C3.50406 5.2689 4.51578 4.27531 5.75925 4.27531ZM13.5751 19.8162H6.58132L4.96175 11.9593H11.3673V13.112C11.3673 13.6537 11.8082 14.0944 12.3502 14.0944C12.8922 14.0944 13.3331 13.6537 13.3331 13.112V11.9593H15.1948L13.5751 19.8162Z" fill="#57263C"/>
</g>
<defs>
<clipPath id="clip0_36_135">
<rect width="20" height="20" fill="white" transform="translate(0 0.5)"/>
</clipPath>
</defs>
</svg>
